<svg viewBox="0 0 24 24" class="ae c0 ds dt du "><path fill="#0284FE" fill-rule="evenodd" d="M11,12.5857864 L11,3 C11,2.44771525 11.4477153,2 12,2 C12.5522847,2 13,2.44771525 13,3 L13,12.5857864 L16.2928932,9.29289322 C16.6834175,8.90236893 17.3165825,8.90236893 17.7071068,9.29289322 C18.0976311,9.68341751 18.0976311,10.3165825 17.7071068,10.7071068 L12.7071068,15.7071068 C12.3165825,16.0976311 11.6834175,16.0976311 11.2928932,15.7071068 L6.29289322,10.7071068 C5.90236893,10.3165825 5.90236893,9.68341751 6.29289322,9.29289322 C6.68341751,8.90236893 7.31658249,8.90236893 7.70710678,9.29289322 L11,12.5857864 Z M20,16 C20,15.4477153 20.4477153,15 21,15 C21.5522847,15 22,15.4477153 22,16 L22,19.5 C22,20.8807119 20.8807119,22 19.5,22 L4.5,22 C3.11928813,22 2,20.8807119 2,19.5 L2,16 C2,15.4477153 2.44771525,15 3,15 C3.55228475,15 4,15.4477153 4,16 L4,19.5 C4,19.7761424 4.22385763,20 4.5,20 L19.5,20 C19.7761424,20 20,19.7761424 20,19.5 L20,16 Z"></path></svg>